<?xml version="1.0" standalone="no"?><!DOCTYPE svg PUBLIC "-//W3C//DTD SVG 1.1//EN" "http://www.w3.org/Graphics/SVG/1.1/DTD/svg11.dtd"><svg t="1763601551898" class="icon" viewBox="0 0 1024 1024" version="1.1" xmlns="http://www.w3.org/2000/svg" p-id="9358" width="16" height="16" xmlns:xlink="http://www.w3.org/1999/xlink"><path d="M864.711111 598.846578l-137.796267-79.553422c-7.588978-4.380444-17.066667 1.092267-17.066667 9.853156L709.848178 568.888889 688.355556 568.888889c-49.447822 0-94.879289 17.248711-130.844444 45.897956L557.511111 284.444444l39.742578 0c8.760889 0 14.2336-9.477689 9.853156-17.066667l-79.576178-137.796267c-4.380444-7.588978-15.325867-7.588978-19.706311 0L428.270933 267.377778c-4.380444 7.588978 1.092267 17.066667 9.853156 17.066667L477.866667 284.444444l0 171.053511C441.901511 426.848711 396.470044 409.6 347.022222 409.6l-27.181511 0 0-39.742578c0-8.760889-9.477689-14.2336-17.066667-9.853156L164.977778 439.580444c-7.588978 4.380444-7.588978 15.325867 0 19.706311l137.796267 79.553422c7.588978 4.380444 17.066667-1.092267 17.066667-9.853156L319.840711 489.244444 347.022222 489.244444C419.282489 489.244444 477.866667 547.828622 477.866667 620.088889l0 243.575467c0 19.000889 12.891022 36.260978 31.516444 40.0384C535.005867 908.868267 557.511111 889.412267 557.511111 864.711111l0-85.333333C557.511111 707.117511 616.095289 648.533333 688.355556 648.533333l21.492622 0 0 39.742578c0 8.760889 9.477689 14.2336 17.066667 9.853156L864.711111 618.552889C872.300089 614.172444 872.300089 603.227022 864.711111 598.846578z" p-id="9359" fill="#e6e6e6"></path></svg>