<?xml version="1.0" standalone="no"?><!DOCTYPE svg PUBLIC "-//W3C//DTD SVG 1.1//EN" "http://www.w3.org/Graphics/SVG/1.1/DTD/svg11.dtd">
<svg t="1742809308071" class="icon" viewBox="0 0 1024 1024" version="1.1"
    xmlns="http://www.w3.org/2000/svg" p-id="19474" width="48" height="48"
    xmlns:xlink="http://www.w3.org/1999/xlink">
    <path id="svg_1" p-id="19475" fill="#26282D" d="m128,0l-128,0l0,1024l128,0c106.032,0 192,-85.968 192,-192l0,-640c0,-106.032 -85.968,-192 -192,-192z"/>
    <path id="svg_2" p-id="19476" fill="#999999" d="m110.75821,395.888a12.96,12.96 0 0 0 -4.768,8.976c-0.272,2.592 0.096,5.056 0.832,7.408l0.688,1.856l0.32,0.688l0.88,1.44l75.312,95.872l-75.296,95.296c-5.04,6.192 -4.752,14.752 -0.432,20.032c5.328,6.544 15.296,5.632 21.008,0.032l84.528,-109.104a11.2,11.2 0 0 0 -0.016,-13.728l-83.92,-107.808c-4.736,-5.808 -12.512,-6.752 -19.136,-0.96z"/>
</svg>