<?xml version="1.0" standalone="no"?><!DOCTYPE svg PUBLIC "-//W3C//DTD SVG 1.1//EN" "http://www.w3.org/Graphics/SVG/1.1/DTD/svg11.dtd"><svg t="1733475585009" class="icon" viewBox="0 0 1024 1024" version="1.1" xmlns="http://www.w3.org/2000/svg" p-id="11978" width="16" height="16" xmlns:xlink="http://www.w3.org/1999/xlink"><path d="M905.728 103.424H118.272c-40.448 0-72.704 32.768-72.704 72.704v520.704c0 40.448 32.768 72.704 72.704 72.704h787.456c40.448 0 72.704-32.768 72.704-72.704V176.64c0.512-40.448-32.256-73.216-72.704-73.216z m-10.24 541.696c0 23.04-18.432 41.472-41.472 41.472h-133.12V445.44c0-23.04-18.432-41.472-41.472-41.472s-41.472 18.432-41.472 41.472v241.664h-83.456V361.984c0-23.04-18.432-41.472-41.472-41.472s-41.472 18.432-41.472 41.472v325.12H387.072V512c0-23.04-18.432-41.472-41.472-41.472s-41.472 18.432-41.472 41.472v175.104h-133.12c-23.04 0-41.472-18.432-41.472-41.472V228.352c0-23.04 18.432-41.472 41.472-41.472h683.52c23.04 0 41.472 18.432 41.472 41.472V645.12z m-192 192H320.512c-23.04 0-41.472 18.432-41.472 41.472s18.432 41.472 41.472 41.472h383.488c23.04 0 41.472-18.432 41.472-41.472s-18.944-41.472-41.984-41.472z" p-id="11979" fill="#e6e6e6"></path></svg>