<?xml version="1.0" standalone="no"?><!DOCTYPE svg PUBLIC "-//W3C//DTD SVG 1.1//EN" "http://www.w3.org/Graphics/SVG/1.1/DTD/svg11.dtd"><svg t="1743420004072" class="icon" viewBox="0 0 1024 1024" version="1.1" xmlns="http://www.w3.org/2000/svg" p-id="2706" width="16" height="16" xmlns:xlink="http://www.w3.org/1999/xlink"><path d="M812.8 718.72a433.728 433.728 0 0 0 89.6-267.136C902.4 203.52 704 0 454.4 0S0 203.52 0 451.584s204.8 451.584 454.4 451.584c102.4 0 198.4-31.808 268.8-89.088l192 190.848c12.8 12.736 32 19.072 44.8 19.072 12.8 0 32-6.4 44.8-19.072 25.6-25.472 25.6-63.616 0-89.024l-192-197.184z m-358.4 50.88c-179.2 0-326.4-139.904-326.4-318.08 0-178.048 147.2-324.288 326.4-324.288s326.4 146.24 326.4 324.352c0 178.112-147.2 318.016-326.4 318.016z" fill="#e6e6e6" p-id="2707"></path></svg>