<?xml version="1.0" standalone="no"?><!DOCTYPE svg PUBLIC "-//W3C//DTD SVG 1.1//EN" "http://www.w3.org/Graphics/SVG/1.1/DTD/svg11.dtd"><svg t="1763544088220" class="icon" viewBox="0 0 1024 1024" version="1.1" xmlns="http://www.w3.org/2000/svg" p-id="1637" width="16" height="16" xmlns:xlink="http://www.w3.org/1999/xlink"><path d="M191.83449059 800.72927429c-117.879327-133.61055392-102.1743188-337.95919152 23.58373103-463.71724133L338.55440028 213.8758543l104.79618995 104.79618995-125.75804982 125.75804982c-68.11621253 68.11621253-78.59058779 178.14303543-18.33998871 254.12486142 70.72497433 86.45620124 199.09178594 89.07807239 275.07361193 13.0962464L705.32795575 580.64940977l104.79618995 104.79618995-130.98868277 130.98868277c-136.23242507 136.23242507-358.92105139 128.37992097-487.30097234-15.7050082zM495.73557584 266.28705864L390.93938589 161.49086869 469.54308303 82.88717155C485.26120059 67.16905398 506.2099511 67.16905398 521.94117801 82.9002809L574.33927299 135.29837587c15.71811756 15.71811756 15.73122691 36.67997742 0.01310935 52.39809498l-78.60369714 78.60369714z m366.77355547 366.77355547l-104.79618995-104.79618996L836.3166385 449.66072701C852.03475607 433.94260946 872.98350657 433.94260946 888.70162413 449.66072701l52.39809497 52.39809498c15.71811756 15.71811756 15.73122691 36.67997742 0.01310935 52.39809498l-78.60369714 78.60369714z" fill="#e6e6e6" p-id="1638"></path></svg>