<?xml version="1.0" standalone="no"?><!DOCTYPE svg PUBLIC "-//W3C//DTD SVG 1.1//EN" "http://www.w3.org/Graphics/SVG/1.1/DTD/svg11.dtd"><svg t="1722763790971" class="icon" viewBox="0 0 1024 1024" version="1.1" xmlns="http://www.w3.org/2000/svg" p-id="44140" width="32" height="32" xmlns:xlink="http://www.w3.org/1999/xlink"><path d="M512 512m-289 0a289 289 0 1 0 578 0 289 289 0 1 0-578 0Z" p-id="44141" fill="#d81e06"></path><path d="M512 1018.1c-135.2 0-262.3-52.6-357.8-148.2S5.9 647.2 5.9 512s52.6-262.3 148.2-357.8S376.8 5.9 512 5.9s262.3 52.6 357.8 148.2S1018 376.8 1018 511.9s-52.6 262.3-148.2 357.8-222.6 148.4-357.8 148.4z m0-908.6c-221.9 0-402.5 180.6-402.5 402.5S290.1 914.5 512 914.5 914.5 733.9 914.5 512 733.9 109.5 512 109.5z" p-id="44142" fill="#d81e06"></path></svg>