<?xml version="1.0" standalone="no"?><!DOCTYPE svg PUBLIC "-//W3C//DTD SVG 1.1//EN" "http://www.w3.org/Graphics/SVG/1.1/DTD/svg11.dtd"><svg t="1722763283126" class="icon" viewBox="0 0 1569 1024" version="1.1" xmlns="http://www.w3.org/2000/svg" p-id="31145" width="15.322265625" height="10" xmlns:xlink="http://www.w3.org/1999/xlink"><path d="M1405.406161 525.431268a82.962832 82.962832 0 0 0 0-116.70105Q1212.932391 217.915705 1021.28825 24.335764a79.091233 79.091233 0 0 0-44.246844-22.95305l-10.508625-1.382714h-3.041971l-11.891339 1.659257a76.325805 76.325805 0 0 0-62.498666 57.797439 86.557888 86.557888 0 0 0 0 34.844389 63.88138 63.88138 0 0 0 14.103681 30.143163 154.863953 154.863953 0 0 0 10.785168 11.891339L1238.374326 462.379516a55.308554 55.308554 0 0 0 4.97777 3.871598l-4.701227 4.97777L923.668651 786.211102a94.577628 94.577628 0 0 0-35.397475 53.096212 114.765251 114.765251 0 0 0 0 32.078962 63.051752 63.051752 0 0 0 5.254313 14.93331 77.708519 77.708519 0 0 0 127.486218 22.676507q192.197227-191.644141 383.841368-383.564825z" fill="#B74000" p-id="31146"></path><path d="M965.42661 529.579409a82.962832 82.962832 0 0 0 0-115.318336Q775.165182 224.829274 585.45684 34.567847a78.261605 78.261605 0 0 0-43.9703-22.676508l-10.232083-1.382714h-3.04197l-11.614797 1.659257a75.496177 75.496177 0 0 0-61.669038 57.244354 85.451717 85.451717 0 0 0 0 34.567846 63.051752 63.051752 0 0 0 12.99751 30.972791 153.204696 153.204696 0 0 0 10.508626 11.891339l321.895787 319.959988a55.308554 55.308554 0 0 0 4.97777 3.871599l-4.701228 4.97777q-155.693581 157.076295-311.663704 312.21679a93.471457 93.471457 0 0 0-34.844389 52.543126 113.382537 113.382537 0 0 0 0 31.802419 62.222124 62.222124 0 0 0 5.254312 14.93331 76.878891 76.878891 0 0 0 126.103504 22.399965q189.984885-189.708342 379.96977-379.693227z" fill="#B74000" p-id="31147"></path><path d="M513.832262 524.601639a82.962832 82.962832 0 0 0 0-115.318336Q322.188121 219.851504 132.756322 29.590077A78.261605 78.261605 0 0 0 89.062564 6.913569L78.830481 5.530855h-3.04197l-11.614797 1.659257A75.496177 75.496177 0 0 0 2.228133 64.434466a85.451717 85.451717 0 0 0 0 34.567847 63.051752 63.051752 0 0 0 13.827139 29.866619 153.204696 153.204696 0 0 0 10.508625 11.891339L347.906599 462.379516a55.308554 55.308554 0 0 0 4.97777 3.871598l-4.701227 4.97777L35.966352 782.892589a93.471457 93.471457 0 0 0-34.84439 52.543127 113.382537 113.382537 0 0 0 0 31.802418 62.222124 62.222124 0 0 0 5.254313 14.93331 76.878891 76.878891 0 0 0 126.103504 22.399965q190.261427-188.878714 381.352483-379.96977z" fill="#B74000" p-id="31148"></path></svg>