<?xml version="1.0" standalone="no"?><!DOCTYPE svg PUBLIC "-//W3C//DTD SVG 1.1//EN" "http://www.w3.org/Graphics/SVG/1.1/DTD/svg11.dtd"><svg t="1705745009196" class="icon" viewBox="0 0 1024 1024" version="1.1" xmlns="http://www.w3.org/2000/svg" p-id="2033" width="16" height="16" xmlns:xlink="http://www.w3.org/1999/xlink"><path d="M827.733333 315.733333l-123.733333-123.733333c-12.8-12.8-34.133333-21.333333-59.733333-21.333333H256c-46.933333 0-85.333333 38.4-85.333333 85.333333v512c0 46.933333 38.4 85.333333 85.333333 85.333333h512c46.933333 0 85.333333-38.4 85.333333-85.333333V379.733333c0-25.6-8.533333-46.933333-25.6-64zM341.333333 298.666667h298.666667c25.6 0 42.666667 17.066667 42.666667 42.666666v85.333334c0 25.6-17.066667 42.666667-42.666667 42.666666H341.333333c-25.6 0-42.666667-17.066667-42.666666-42.666666V341.333333c0-25.6 17.066667-42.666667 42.666666-42.666666z m384 469.333333H298.666667c-25.6 0-42.666667-17.066667-42.666667-42.666667v-128c0-25.6 17.066667-42.666667 42.666667-42.666666h426.666666c25.6 0 42.666667 17.066667 42.666667 42.666666v128c0 25.6-17.066667 42.666667-42.666667 42.666667z" fill="#e6e6e6" p-id="2034"></path><path d="M533.333333 426.666667h42.666667c12.8 0 21.333333-8.533333 21.333333-21.333334v-42.666666c0-12.8-8.533333-21.333333-21.333333-21.333334h-42.666667c-12.8 0-21.333333 8.533333-21.333333 21.333334v42.666666c0 12.8 8.533333 21.333333 21.333333 21.333334z" fill="#e6e6e6" p-id="2035"></path></svg>